<svg width="468" height="522" xmlns="http://www.w3.org/2000/svg" xmlns:xlink="http://www.w3.org/1999/xlink" xml:space="preserve" overflow="hidden"><g transform="translate(1 -3)"><rect x="232" y="5" width="229" height="519" stroke="#AABFE4" stroke-width="2" stroke-miterlimit="8" fill="#AABFE4"/><rect x="0" y="4" width="231" height="520" stroke="#DAE3F3" stroke-width="2" stroke-miterlimit="8" fill="#DAE3F3"/><path d="M276.499 445.508 216.5 445.508 216.5 233 220.25 236.75 182.75 236.75 182.75 229.25 224 229.25 224 441.758 220.25 438.008 276.499 438.008ZM186.5 244.25 164 233 186.5 221.75Z" fill="#00A375"/><text font-family="Times New Roman,Times New Roman_MSFontService,Arial" font-weight="700" font-size="20" transform="translate(349.667 127)">View #2</text><text font-family="Times New Roman,Times New Roman_MSFontService,Arial" font-weight="700" font-size="20" transform="translate(47.3551 127)">View #1</text><path d="M0-3.75 51.8094-3.75 51.8094 106.272 48.0594 102.522 77.3687 102.522 77.3687 110.022 44.3094 110.022 44.3094 0 48.0594 3.75 0 3.75ZM73.6187 95.0218 96.1187 106.272 73.6187 117.522Z" fill="#4472C4" transform="matrix(1.83697e-16 1 1 -1.83697e-16 255 100)"/><path d="M212.267 100 212.267 151.908 102 151.908 105.75 148.158 105.75 177.565 98.2499 177.565 98.2499 144.408 208.517 144.408 204.767 148.158 204.767 100ZM113.25 173.815 102 196.315 90.7499 173.815Z" fill="#4472C4"/><path d="M105.75 268.979 106.423 387.883 98.923 387.926 98.2501 269.021ZM113.902 384.091 102.779 406.654 91.4019 384.218Z" fill="#4472C4"/><path d="M0-3.75 55.2958-3.75 55.2958 193.323 51.5458 189.573 84.3413 189.573 84.3413 197.073 47.7958 197.073 47.7958 0 51.5458 3.75 0 3.75ZM80.5913 182.073 103.091 193.323 80.5913 204.573Z" fill="#00A375" transform="matrix(1 0 0 -1 197 426.323)"/><text font-family="Times New Roman,Times New Roman_MSFontService,Arial" font-weight="400" font-size="18" transform="translate(148.911 57)">Initial PU training data</text><rect x="27" y="413" width="95" height="37" fill="#E73A23"/><rect x="122" y="413" width="73" height="37" fill="#00A375"/><rect x="40.5" y="196.5" width="124" height="73" fill="#788FCE"/><path d="M56 196.5 56 269.5M149 196.5 149 269.5" stroke="#FFFFFF" stroke-width="3" stroke-miterlimit="8" fill="none" fill-rule="evenodd"/><rect x="40.5" y="196.5" width="124" height="73" stroke="#FFFFFF" stroke-width="3" stroke-miterlimit="8" fill="none"/><text fill="#0D0D0D" font-family="Times New Roman,Times New Roman_MSFontService,Arial" font-weight="700" font-size="18" transform="translate(90.0257 217)">PU </text><text fill="#0D0D0D" font-family="Times New Roman,Times New Roman_MSFontService,Arial" font-weight="700" font-size="18" transform="translate(70.5257 239)">Learner </text><text fill="#0D0D0D" font-family="Times New Roman,Times New Roman_MSFontService,Arial" font-weight="700" font-size="18" transform="translate(93.0257 261)">#1</text><path d="M364.75 268.959 366.047 387.864 358.547 387.946 357.25 269.041ZM373.505 384.033 362.502 406.654 351.007 384.278Z" fill="#4472C4"/><rect x="300.5" y="196.5" width="123" height="73" fill="#365096"/><path d="M315.875 196.5 315.875 269.5M408.125 196.5 408.125 269.5" stroke="#FFFFFF" stroke-width="3" stroke-miterlimit="8" fill="none" fill-rule="evenodd"/><rect x="300.5" y="196.5" width="123" height="73" stroke="#FFFFFF" stroke-width="3" stroke-miterlimit="8" fill="none"/><text fill="#FFFFFF" font-family="Times New Roman,Times New Roman_MSFontService,Arial" font-weight="700" font-size="18" transform="translate(349.34 217)">PU </text><text fill="#FFFFFF" font-family="Times New Roman,Times New Roman_MSFontService,Arial" font-weight="700" font-size="18" transform="translate(329.84 239)">Learner </text><text fill="#FFFFFF" font-family="Times New Roman,Times New Roman_MSFontService,Arial" font-weight="700" font-size="18" transform="translate(352.34 261)">#2</text><rect x="279" y="413" width="117" height="37" fill="#E73A23"/><rect x="396" y="413" width="51" height="37" fill="#00A375"/><text font-family="Times New Roman,Times New Roman_MSFontService,Arial" font-weight="400" font-size="18" transform="translate(21.3312 482)">Positive labels expanded</text><text font-family="Times New Roman,Times New Roman_MSFontService,Arial" font-weight="400" font-size="18" transform="translate(55.3312 504)">by classifier #1</text><text font-family="Times New Roman,Times New Roman_MSFontService,Arial" font-weight="400" font-size="18" transform="translate(273.373 482)">Positive labels expanded</text><text font-family="Times New Roman,Times New Roman_MSFontService,Arial" font-weight="400" font-size="18" transform="translate(307.373 504)">by classifier #2</text><rect x="148" y="62" width="133" height="35" fill="#A5A5A5"/><rect x="281" y="62" width="34" height="35" fill="#00A375"/></g></svg>