<svg width="627" height="904" xmlns="http://www.w3.org/2000/svg" xmlns:xlink="http://www.w3.org/1999/xlink" xml:space="preserve" overflow="hidden"><defs><linearGradient x1="530" y1="-7.5" x2="779" y2="-7.5" gradientUnits="userSpaceOnUse" spreadMethod="reflect" id="fill0"><stop offset="0" stop-color="#E73A23"/><stop offset="0.64" stop-color="#9D6F58"/><stop offset="0.75" stop-color="#53A48D"/><stop offset="1" stop-color="#00A375"/></linearGradient><linearGradient x1="169" y1="-7.5" x2="418" y2="-7.5" gradientUnits="userSpaceOnUse" spreadMethod="reflect" id="fill1"><stop offset="0" stop-color="#E73A23"/><stop offset="0.52" stop-color="#9D6F58"/><stop offset="0.64" stop-color="#53A48D"/><stop offset="1" stop-color="#00A375"/></linearGradient></defs><g transform="translate(-160 152)"><path d="M530-35.0718C530-36.1367 530.863-37 531.928-37L777.072-37C778.137-37 779-36.1367 779-35.0718L779 20.0718C779 21.1367 778.137 22 777.072 22L531.928 22C530.863 22 530 21.1367 530 20.0718Z" fill="url(#fill0)" fill-rule="evenodd"/><path d="M652.451 28.0001 652.451 72.2499 474.417 72.2499 474.417 111.142 477 111.142" stroke="#4472C4" stroke-width="12" stroke-miterlimit="8" fill="none" fill-rule="evenodd"/><path d="M0 0 43.4054 0 43.4054 179.537 82.4728 179.537 82.4728 175.451" stroke="#4472C4" stroke-width="12" stroke-miterlimit="8" fill="none" fill-rule="evenodd" transform="matrix(6.12323e-17 1 1 -6.12323e-17 295 29.0001)"/><path d="M492 105.494 474 141.494 456 105.494Z" fill="#4472C4"/><path d="M169-35.0718C169-36.1367 169.863-37 170.928-37L416.072-37C417.137-37 418-36.1367 418-35.0718L418 20.0718C418 21.1367 417.137 22 416.072 22L170.928 22C169.863 22 169 21.1367 169 20.0718Z" fill="url(#fill1)" fill-rule="evenodd"/><path d="M350 466.667C350 458.566 356.566 452 364.667 452L584.333 452C592.434 452 599 458.566 599 466.667L599 525.333C599 533.434 592.434 540 584.333 540L364.667 540C356.566 540 350 533.434 350 525.333Z" stroke="#000000" stroke-width="2" stroke-miterlimit="8" fill="#FFFFFF" fill-rule="evenodd"/><text font-family="Times New Roman,Times New Roman_MSFontService,Arial" font-weight="400" font-size="28" transform="translate(373.377 490)">Train classifier #1 </text><text font-family="Times New Roman,Times New Roman_MSFontService,Arial" font-weight="400" font-size="28" transform="translate(392.137 524)">on these labels</text><rect x="328.5" y="623.5" width="294" height="88" fill="#00A375"/><path d="M365.25 623.5 365.25 711.5M585.75 623.5 585.75 711.5" stroke="#FFFFFF" stroke-width="3" stroke-miterlimit="8" fill="none" fill-rule="evenodd"/><rect x="328.5" y="623.5" width="294" height="88" stroke="#FFFFFF" stroke-width="3" stroke-miterlimit="8" fill="none"/><text fill="#FFFFFF" font-family="Times New Roman,Times New Roman_MSFontService,Arial" font-weight="400" font-size="28" transform="translate(384.513 661)">Synthesizability </text><text fill="#FFFFFF" font-family="Times New Roman,Times New Roman_MSFontService,Arial" font-weight="400" font-size="28" transform="translate(423.513 695)">Predictor</text><path d="M359 155.667C359 147.566 365.566 141 373.667 141L573.333 141C581.434 141 588 147.566 588 155.667L588 214.333C588 222.434 581.434 229 573.333 229L373.667 229C365.566 229 359 222.434 359 214.333Z" stroke="#000000" stroke-width="2" stroke-miterlimit="8" fill="#FFFFFF" fill-rule="evenodd"/><text fill="#111111" font-family="Times New Roman,Times New Roman_MSFontService,Arial" font-weight="400" font-size="28" transform="translate(384.957 179)">Average scores, </text><text fill="#111111" font-family="Times New Roman,Times New Roman_MSFontService,Arial" font-weight="400" font-size="28" transform="translate(405.797 213)">apply cutoff</text><rect x="470" y="107" width="7" height="8" stroke="#4472C4" stroke-width="2" stroke-miterlimit="8" fill="#4472C4"/><path d="M480 228.99 480.074 271.84 468.074 271.861 468 229.01ZM492.063 265.819 474.125 301.85 456.063 265.881Z" fill="#4472C4"/><path d="M479.999 375.914 480.667 422.784 468.669 422.955 468.001 376.086ZM492.581 416.613 475.095 452.866 456.584 417.126Z" fill="#4472C4"/><text fill="#111111" font-family="Times New Roman,Times New Roman_MSFontService,Arial" font-weight="400" font-size="28" transform="translate(564.055 -116)">Synthesizability </text><text fill="#111111" font-family="Times New Roman,Times New Roman_MSFontService,Arial" font-weight="400" font-size="28" transform="translate(583.435 -82)">score By PU </text><text fill="#111111" font-family="Times New Roman,Times New Roman_MSFontService,Arial" font-weight="400" font-size="28" transform="translate(586.185 -49)">classifier #2</text><text fill="#111111" font-family="Times New Roman,Times New Roman_MSFontService,Arial" font-weight="400" font-size="28" transform="translate(208.894 -116)">Synthesizability </text><text fill="#111111" font-family="Times New Roman,Times New Roman_MSFontService,Arial" font-weight="400" font-size="28" transform="translate(228.274 -82)">score By </text><text fill="#111111" font-family="Times New Roman,Times New Roman_MSFontService,Arial" font-weight="400" font-size="28" transform="translate(334.274 -82)">PU </text><text fill="#111111" font-family="Times New Roman,Times New Roman_MSFontService,Arial" font-weight="400" font-size="28" transform="translate(231.024 -49)">classifier #1</text><rect x="350" y="309" width="158" height="59" fill="#E73A23"/><rect x="508" y="309" width="91" height="59" fill="#00A375"/><text fill="#111111" font-family="Times New Roman,Times New Roman_MSFontService,Arial" font-weight="400" font-size="28" transform="translate(266.231 346)">{0,1}</text><text fill="#111111" font-family="Times New Roman,Times New Roman_MSFontService,Arial" font-weight="400" font-size="28" transform="translate(445.66 2)">[0,1]</text><path d="M481 540 481 593.197 469 593.197 469 540ZM493 587.197 475 623.197 457 587.197Z" fill="#4472C4"/></g></svg>