<svg width="1274" height="527" xmlns="http://www.w3.org/2000/svg" xmlns:xlink="http://www.w3.org/1999/xlink" xml:space="preserve" overflow="hidden"><g transform="translate(251 -73)"><path d="M135 205.833C135 162.295 170.295 127 213.833 127L944.167 127C987.705 127 1023 162.295 1023 205.833L1023 521.167C1023 564.705 987.705 600 944.167 600L213.833 600C170.295 600 135 564.705 135 521.167Z" fill="#AABFE4" fill-rule="evenodd"/><path d="M-117.089 170 30.0891 170C49.3699 170 65 201.788 65 241 65 280.212 49.3699 312 30.0891 312L-117.089 312C-136.37 312-152 280.212-152 241-152 201.788-136.37 170-117.089 170Z" stroke="#000000" stroke-width="2" stroke-miterlimit="8" fill="#FFFFFF" fill-rule="evenodd"/><path d="M-125 193C-125 188.582-121.642 185-117.5 185-113.358 185-110 188.582-110 193-110 197.418-113.358 201-117.5 201-121.642 201-125 197.418-125 193Z" stroke="#7F7F7F" stroke-width="2" stroke-miterlimit="8" fill="#7F7F7F" fill-rule="evenodd"/><path d="M-98 224C-98 219.582-94.6421 216-90.5 216-86.3579 216-83 219.582-83 224-83 228.418-86.3579 232-90.5 232-94.6421 232-98 228.418-98 224Z" stroke="#00A375" stroke-width="2" stroke-miterlimit="8" fill="#00A375" fill-rule="evenodd"/><path d="M-106 204C-106 199.582-102.866 196-99 196-95.134 196-92 199.582-92 204-92 208.418-95.134 212-99 212-102.866 212-106 208.418-106 204Z" stroke="#7F7F7F" stroke-width="2" stroke-miterlimit="8" fill="#7F7F7F" fill-rule="evenodd"/><path d="M-97 186C-97 181.582-93.6421 178-89.5 178-85.3579 178-82 181.582-82 186-82 190.418-85.3579 194-89.5 194-93.6421 194-97 190.418-97 186Z" stroke="#7F7F7F" stroke-width="2" stroke-miterlimit="8" fill="#7F7F7F" fill-rule="evenodd"/><path d="M-136 235C-136 230.582-132.642 227-128.5 227-124.358 227-121 230.582-121 235-121 239.418-124.358 243-128.5 243-132.642 243-136 239.418-136 235Z" stroke="#7F7F7F" stroke-width="2" stroke-miterlimit="8" fill="#7F7F7F" fill-rule="evenodd"/><path d="M-27 188C-27 183.582-23.6421 180-19.5 180-15.3579 180-12 183.582-12 188-12 192.418-15.3579 196-19.5 196-23.6421 196-27 192.418-27 188Z" stroke="#7F7F7F" stroke-width="2" stroke-miterlimit="8" fill="#7F7F7F" fill-rule="evenodd"/><path d="M-110 290C-110 285.582-106.642 282-102.5 282-98.3579 282-95 285.582-95 290-95 294.418-98.3579 298-102.5 298-106.642 298-110 294.418-110 290Z" stroke="#7F7F7F" stroke-width="2" stroke-miterlimit="8" fill="#7F7F7F" fill-rule="evenodd"/><path d="M-28 290C-28 285.582-24.6421 282-20.5 282-16.3579 282-13 285.582-13 290-13 294.418-16.3579 298-20.5 298-24.6421 298-28 294.418-28 290Z" stroke="#7F7F7F" stroke-width="2" stroke-miterlimit="8" fill="#7F7F7F" fill-rule="evenodd"/><path d="M-9 209C-9 204.582-5.86599 201-2 201 1.86599 201 5 204.582 5 209 5 213.418 1.86599 217-2 217-5.86599 217-9 213.418-9 209Z" stroke="#7F7F7F" stroke-width="2" stroke-miterlimit="8" fill="#7F7F7F" fill-rule="evenodd"/><path d="M-63 195.5C-63 191.358-59.6421 188-55.5 188-51.3579 188-48 191.358-48 195.5-48 199.642-51.3579 203-55.5 203-59.6421 203-63 199.642-63 195.5Z" stroke="#7F7F7F" stroke-width="2" stroke-miterlimit="8" fill="#7F7F7F" fill-rule="evenodd"/><path d="M-65 239.5C-65 235.358-61.6421 232-57.5 232-53.3579 232-50 235.358-50 239.5-50 243.642-53.3579 247-57.5 247-61.6421 247-65 243.642-65 239.5Z" stroke="#7F7F7F" stroke-width="2" stroke-miterlimit="8" fill="#7F7F7F" fill-rule="evenodd"/><path d="M15 190C15 185.582 18.3579 182 22.5 182 26.6421 182 30 185.582 30 190 30 194.418 26.6421 198 22.5 198 18.3579 198 15 194.418 15 190Z" stroke="#7F7F7F" stroke-width="2" stroke-miterlimit="8" fill="#7F7F7F" fill-rule="evenodd"/><path d="M-27 252C-27 247.582-23.6421 244-19.5 244-15.3579 244-12 247.582-12 252-12 256.418-15.3579 260-19.5 260-23.6421 260-27 256.418-27 252Z" stroke="#7F7F7F" stroke-width="2" stroke-miterlimit="8" fill="#7F7F7F" fill-rule="evenodd"/><path d="M25 242C25 237.582 28.3579 234 32.5 234 36.6421 234 40 237.582 40 242 40 246.418 36.6421 250 32.5 250 28.3579 250 25 246.418 25 242Z" stroke="#7F7F7F" stroke-width="2" stroke-miterlimit="8" fill="#7F7F7F" fill-rule="evenodd"/><path d="M15 277C15 272.582 18.3579 269 22.5 269 26.6421 269 30 272.582 30 277 30 281.418 26.6421 285 22.5 285 18.3579 285 15 281.418 15 277Z" stroke="#7F7F7F" stroke-width="2" stroke-miterlimit="8" fill="#7F7F7F" fill-rule="evenodd"/><path d="M21 300C21 295.582 24.3579 292 28.5 292 32.6421 292 36 295.582 36 300 36 304.418 32.6421 308 28.5 308 24.3579 308 21 304.418 21 300Z" stroke="#7F7F7F" stroke-width="2" stroke-miterlimit="8" fill="#7F7F7F" fill-rule="evenodd"/><path d="M-128 264.5C-128 260.358-124.866 257-121 257-117.134 257-114 260.358-114 264.5-114 268.642-117.134 272-121 272-124.866 272-128 268.642-128 264.5Z" stroke="#7F7F7F" stroke-width="2" stroke-miterlimit="8" fill="#7F7F7F" fill-rule="evenodd"/><path d="M-78 261C-78 256.582-74.6421 253-70.5 253-66.3579 253-63 256.582-63 261-63 265.418-66.3579 269-70.5 269-74.6421 269-78 265.418-78 261Z" stroke="#7F7F7F" stroke-width="2" stroke-miterlimit="8" fill="#7F7F7F" fill-rule="evenodd"/><path d="M-55 218.5C-55 214.358-51.6421 211-47.5 211-43.3579 211-40 214.358-40 218.5-40 222.642-43.3579 226-47.5 226-51.6421 226-55 222.642-55 218.5Z" stroke="#00A375" stroke-width="2" stroke-miterlimit="8" fill="#00A375" fill-rule="evenodd"/><path d="M-68 283.5C-68 279.358-64.6421 276-60.5 276-56.3579 276-53 279.358-53 283.5-53 287.642-56.3579 291-60.5 291-64.6421 291-68 287.642-68 283.5Z" stroke="#00A375" stroke-width="2" stroke-miterlimit="8" fill="#00A375" fill-rule="evenodd"/><path d="M-50 272.5C-50 268.358-46.6421 265-42.5 265-38.3579 265-35 268.358-35 272.5-35 276.642-38.3579 280-42.5 280-46.6421 280-50 276.642-50 272.5Z" stroke="#00A375" stroke-width="2" stroke-miterlimit="8" fill="#00A375" fill-rule="evenodd"/><path d="M-2 236C-2 231.582 1.35786 228 5.5 228 9.64214 228 13 231.582 13 236 13 240.418 9.64214 244 5.5 244 1.35786 244-2 240.418-2 236Z" stroke="#00A375" stroke-width="2" stroke-miterlimit="8" fill="#00A375" fill-rule="evenodd"/><path d="M-104 246C-104 241.582-100.642 238-96.5 238-92.3579 238-89 241.582-89 246-89 250.418-92.3579 254-96.5 254-100.642 254-104 250.418-104 246Z" stroke="#00A375" stroke-width="2" stroke-miterlimit="8" fill="#00A375" fill-rule="evenodd"/><path d="M184 204.833C184 194.984 191.984 187 201.833 187L340.167 187C350.016 187 358 194.984 358 204.833L358 276.167C358 286.016 350.016 294 340.167 294L201.833 294C191.984 294 184 286.016 184 276.167Z" stroke="#000000" stroke-width="2" stroke-miterlimit="8" fill="#FFFFFF" fill-rule="evenodd"/><text font-family="Times New Roman,Times New Roman_MSFontService,Arial" font-weight="400" font-size="24" transform="translate(209.938 235)">Initialize PU </text><text font-family="Times New Roman,Times New Roman_MSFontService,Arial" font-weight="400" font-size="24" transform="translate(204.938 264)">data</text><text font-family="Times New Roman,Times New Roman_MSFontService,Arial" font-weight="400" font-size="24" transform="translate(245.188 264)">-</text><text font-family="Times New Roman,Times New Roman_MSFontService,Arial" font-weight="400" font-size="24" transform="translate(253.188 264)">handling</text><path d="M793 205.167C793 195.133 801.133 187 811.167 187L970.833 187C980.867 187 989 195.133 989 205.167L989 277.833C989 287.867 980.867 296 970.833 296L811.167 296C801.133 296 793 287.867 793 277.833Z" stroke="#000000" stroke-width="2" stroke-miterlimit="8" fill="#FFFFFF" fill-rule="evenodd"/><text font-family="Times New Roman,Times New Roman_MSFontService,Arial" font-weight="400" font-size="24" transform="translate(856.997 236)">Train a </text><text font-family="Times New Roman,Times New Roman_MSFontService,Arial" font-weight="400" font-size="24" transform="translate(847.577 265)">classifier</text><path d="M184 472.833C184 462.984 191.984 455 201.833 455L340.167 455C350.016 455 358 462.984 358 472.833L358 544.167C358 554.016 350.016 562 340.167 562L201.833 562C191.984 562 184 554.016 184 544.167Z" stroke="#000000" stroke-width="2" stroke-miterlimit="8" fill="#FFFFFF" fill-rule="evenodd"/><text font-family="Times New Roman,Times New Roman_MSFontService,Arial" font-weight="400" font-size="24" transform="translate(218.587 488)">Record the </text><text font-family="Times New Roman,Times New Roman_MSFontService,Arial" font-weight="400" font-size="24" transform="translate(226.217 517)">predicted </text><text font-family="Times New Roman,Times New Roman_MSFontService,Arial" font-weight="400" font-size="24" transform="translate(242.967 546)">labels</text><path d="M793 472.833C793 462.984 800.984 455 810.833 455L971.167 455C981.016 455 989 462.984 989 472.833L989 544.167C989 554.016 981.016 562 971.167 562L810.833 562C800.984 562 793 554.016 793 544.167Z" stroke="#000000" stroke-width="2" stroke-miterlimit="8" fill="#FFFFFF" fill-rule="evenodd"/><text font-family="Times New Roman,Times New Roman_MSFontService,Arial" font-weight="400" font-size="24" transform="translate(813.014 488)">Predict the label </text><text font-family="Times New Roman,Times New Roman_MSFontService,Arial" font-weight="400" font-size="24" transform="translate(829.514 517)">of remaining </text><text font-family="Times New Roman,Times New Roman_MSFontService,Arial" font-weight="400" font-size="24" transform="translate(821.384 546)">unlabeled data</text><path d="M897 295.988 897.253 425.442 885.253 425.466 885 296.012ZM909.241 419.419 891.312 455.454 873.241 419.489Z" fill="#4472C4"/><path d="M793.247 514.091 387.999 514.006 388.001 502.006 793.25 502.091ZM393.996 526.008 358 508 394.004 490.008Z" fill="#4472C4"/><path d="M265 454.521 265 368.26 271.101 368.26 265.101 374.26 265.101 324 277.101 324 277.101 380.26 271 380.26 277 374.26 277 454.521ZM253.101 330 271.101 294 289.101 330Z" fill="#4472C4"/><path d="M183.94 514 73 514 73 502 183.94 502ZM79 526 43 508 79 490Z" fill="#4472C4"/><path d="M-37.9998 312-37.9998 393.629-44 393.629-38 387.629-38 433.258-50 433.258-50 381.629-43.9998 381.629-49.9998 387.629-49.9998 312ZM-26 427.258-44 463.258-62 427.258Z" fill="#4472C4"/><text fill="#2F528F" font-family="Times New Roman,Times New Roman_MSFontService,Arial" font-weight="400" font-size="28" transform="translate(360 109)">Positive and Unlabeled (PU) Learning</text><rect x="-130.5" y="464.5" width="174" height="89" fill="#4472C4"/><path d="M-108.75 464.5-108.75 553.5M21.75 464.5 21.75 553.5" stroke="#FFFFFF" stroke-width="3" stroke-miterlimit="8" fill="none" fill-rule="evenodd"/><rect x="-130.5" y="464.5" width="174" height="89" stroke="#FFFFFF" stroke-width="3" stroke-miterlimit="8" fill="none"/><text fill="#FFFFFF" font-family="Times New Roman,Times New Roman_MSFontService,Arial" font-weight="700" font-size="24" transform="translate(-88.0458 503)">Score by </text><text fill="#FFFFFF" font-family="Times New Roman,Times New Roman_MSFontService,Arial" font-weight="700" font-size="24" transform="translate(-94.6358 532)">averaging</text><path d="M501.911 170 649.089 170C668.37 170 684 201.788 684 241 684 280.212 668.37 312 649.089 312L501.911 312C482.63 312 467 280.212 467 241 467 201.788 482.63 170 501.911 170Z" stroke="#000000" stroke-width="2" stroke-miterlimit="8" fill="#FFFFFF" fill-rule="evenodd"/><path d="M494 193C494 188.582 497.358 185 501.5 185 505.642 185 509 188.582 509 193 509 197.418 505.642 201 501.5 201 497.358 201 494 197.418 494 193Z" stroke="#E73A23" stroke-width="2" stroke-miterlimit="8" fill="#E73A23" fill-rule="evenodd"/><path d="M521 224C521 219.582 524.358 216 528.5 216 532.642 216 536 219.582 536 224 536 228.418 532.642 232 528.5 232 524.358 232 521 228.418 521 224Z" stroke="#00A375" stroke-width="2" stroke-miterlimit="8" fill="#00A375" fill-rule="evenodd"/><path d="M513 204C513 199.582 516.358 196 520.5 196 524.642 196 528 199.582 528 204 528 208.418 524.642 212 520.5 212 516.358 212 513 208.418 513 204Z" stroke="#7F7F7F" stroke-width="2" stroke-miterlimit="8" fill="#7F7F7F" fill-rule="evenodd"/><path d="M523 186C523 181.582 526.134 178 530 178 533.866 178 537 181.582 537 186 537 190.418 533.866 194 530 194 526.134 194 523 190.418 523 186Z" stroke="#E73A23" stroke-width="2" stroke-miterlimit="8" fill="#E73A23" fill-rule="evenodd"/><path d="M484 235C484 230.582 487.134 227 491 227 494.866 227 498 230.582 498 235 498 239.418 494.866 243 491 243 487.134 243 484 239.418 484 235Z" stroke="#E73A23" stroke-width="2" stroke-miterlimit="8" fill="#E73A23" fill-rule="evenodd"/><path d="M593 188C593 183.582 596.134 180 600 180 603.866 180 607 183.582 607 188 607 192.418 603.866 196 600 196 596.134 196 593 192.418 593 188Z" stroke="#7F7F7F" stroke-width="2" stroke-miterlimit="8" fill="#7F7F7F" fill-rule="evenodd"/><path d="M509 290C509 285.582 512.358 282 516.5 282 520.642 282 524 285.582 524 290 524 294.418 520.642 298 516.5 298 512.358 298 509 294.418 509 290Z" stroke="#E73A23" stroke-width="2" stroke-miterlimit="8" fill="#E73A23" fill-rule="evenodd"/><path d="M592 290C592 285.582 595.134 282 599 282 602.866 282 606 285.582 606 290 606 294.418 602.866 298 599 298 595.134 298 592 294.418 592 290Z" stroke="#7F7F7F" stroke-width="2" stroke-miterlimit="8" fill="#7F7F7F" fill-rule="evenodd"/><path d="M610 209C610 204.582 613.358 201 617.5 201 621.642 201 625 204.582 625 209 625 213.418 621.642 217 617.5 217 613.358 217 610 213.418 610 209Z" stroke="#7F7F7F" stroke-width="2" stroke-miterlimit="8" fill="#7F7F7F" fill-rule="evenodd"/><path d="M557 195.5C557 191.358 560.358 188 564.5 188 568.642 188 572 191.358 572 195.5 572 199.642 568.642 203 564.5 203 560.358 203 557 199.642 557 195.5Z" stroke="#7F7F7F" stroke-width="2" stroke-miterlimit="8" fill="#7F7F7F" fill-rule="evenodd"/><path d="M554 239.5C554 235.358 557.358 232 561.5 232 565.642 232 569 235.358 569 239.5 569 243.642 565.642 247 561.5 247 557.358 247 554 243.642 554 239.5Z" stroke="#E73A23" stroke-width="2" stroke-miterlimit="8" fill="#E73A23" fill-rule="evenodd"/><path d="M635 190C635 185.582 638.358 182 642.5 182 646.642 182 650 185.582 650 190 650 194.418 646.642 198 642.5 198 638.358 198 635 194.418 635 190Z" stroke="#E73A23" stroke-width="2" stroke-miterlimit="8" fill="#E73A23" fill-rule="evenodd"/><path d="M592 252C592 247.582 595.358 244 599.5 244 603.642 244 607 247.582 607 252 607 256.418 603.642 260 599.5 260 595.358 260 592 256.418 592 252Z" stroke="#7F7F7F" stroke-width="2" stroke-miterlimit="8" fill="#7F7F7F" fill-rule="evenodd"/><path d="M645 242C645 237.582 648.134 234 652 234 655.866 234 659 237.582 659 242 659 246.418 655.866 250 652 250 648.134 250 645 246.418 645 242Z" stroke="#7F7F7F" stroke-width="2" stroke-miterlimit="8" fill="#7F7F7F" fill-rule="evenodd"/><path d="M634 277C634 272.582 637.358 269 641.5 269 645.642 269 649 272.582 649 277 649 281.418 645.642 285 641.5 285 637.358 285 634 281.418 634 277Z" stroke="#7F7F7F" stroke-width="2" stroke-miterlimit="8" fill="#7F7F7F" fill-rule="evenodd"/><path d="M641 300C641 295.582 644.358 292 648.5 292 652.642 292 656 295.582 656 300 656 304.418 652.642 308 648.5 308 644.358 308 641 304.418 641 300Z" stroke="#7F7F7F" stroke-width="2" stroke-miterlimit="8" fill="#7F7F7F" fill-rule="evenodd"/><path d="M491 264.5C491 260.358 494.358 257 498.5 257 502.642 257 506 260.358 506 264.5 506 268.642 502.642 272 498.5 272 494.358 272 491 268.642 491 264.5Z" stroke="#7F7F7F" stroke-width="2" stroke-miterlimit="8" fill="#7F7F7F" fill-rule="evenodd"/><path d="M541 261C541 256.582 544.358 253 548.5 253 552.642 253 556 256.582 556 261 556 265.418 552.642 269 548.5 269 544.358 269 541 265.418 541 261Z" stroke="#7F7F7F" stroke-width="2" stroke-miterlimit="8" fill="#7F7F7F" fill-rule="evenodd"/><path d="M564 218.5C564 214.358 567.358 211 571.5 211 575.642 211 579 214.358 579 218.5 579 222.642 575.642 226 571.5 226 567.358 226 564 222.642 564 218.5Z" stroke="#00A375" stroke-width="2" stroke-miterlimit="8" fill="#00A375" fill-rule="evenodd"/><path d="M552 283.5C552 279.358 555.358 276 559.5 276 563.642 276 567 279.358 567 283.5 567 287.642 563.642 291 559.5 291 555.358 291 552 287.642 552 283.5Z" stroke="#00A375" stroke-width="2" stroke-miterlimit="8" fill="#00A375" fill-rule="evenodd"/><path d="M570 272.5C570 268.358 573.358 265 577.5 265 581.642 265 585 268.358 585 272.5 585 276.642 581.642 280 577.5 280 573.358 280 570 276.642 570 272.5Z" stroke="#00A375" stroke-width="2" stroke-miterlimit="8" fill="#00A375" fill-rule="evenodd"/><path d="M617 236C617 231.582 620.358 228 624.5 228 628.642 228 632 231.582 632 236 632 240.418 628.642 244 624.5 244 620.358 244 617 240.418 617 236Z" stroke="#00A375" stroke-width="2" stroke-miterlimit="8" fill="#00A375" fill-rule="evenodd"/><path d="M516 246C516 241.582 519.358 238 523.5 238 527.642 238 531 241.582 531 246 531 250.418 527.642 254 523.5 254 519.358 254 516 250.418 516 246Z" stroke="#00A375" stroke-width="2" stroke-miterlimit="8" fill="#00A375" fill-rule="evenodd"/><text font-family="Times New Roman,Times New Roman_MSFontService,Arial" font-weight="700" font-size="24" transform="translate(498.018 159)">P    </text><text font-family="Times New Roman,Times New Roman_MSFontService,Arial" font-weight="700" font-size="24" transform="translate(553.448 159)">U  </text><text font-family="Times New Roman,Times New Roman_MSFontService,Arial" font-weight="700" font-size="24" transform="translate(612.698 159)">N         </text><path d="M515.5 150.5C515.5 146.082 518.858 142.5 523 142.5 527.142 142.5 530.5 146.082 530.5 150.5 530.5 154.918 527.142 158.5 523 158.5 518.858 158.5 515.5 154.918 515.5 150.5Z" stroke="#00A375" stroke-miterlimit="8" fill="#00A375" fill-rule="evenodd"/><path d="M572.5 150.5C572.5 146.082 575.858 142.5 580 142.5 584.142 142.5 587.5 146.082 587.5 150.5 587.5 154.918 584.142 158.5 580 158.5 575.858 158.5 572.5 154.918 572.5 150.5Z" stroke="#7F7F7F" stroke-miterlimit="8" fill="#7F7F7F" fill-rule="evenodd"/><path d="M631.5 150.5C631.5 146.082 634.858 142.5 639 142.5 643.142 142.5 646.5 146.082 646.5 150.5 646.5 154.918 643.142 158.5 639 158.5 634.858 158.5 631.5 154.918 631.5 150.5Z" stroke="#E73A23" stroke-miterlimit="8" fill="#E73A23" fill-rule="evenodd"/><path d="M0.0338359-5.9999 89.7209-5.49412 89.6532 6.50569-0.0338359 5.9999ZM83.7887-17.5278 119.687 0.674961 83.5857 18.4717Z" fill="#4472C4" transform="matrix(1 0 0 -1 65 241.675)"/><path d="M358.037 235 437.034 235.489 436.96 247.489 357.963 247ZM431.109 223.452 466.997 241.675 430.886 259.452Z" fill="#4472C4"/><path d="M8.6689e-06-6 78.9967-5.99989 78.9967 6.00011-8.6689e-06 6ZM72.9967-17.9999 108.997 0.00015748 72.9967 18.0001Z" fill="#4472C4" transform="matrix(1 0 0 -1 684 241)"/><text fill="#2F528F" font-family="Times New Roman,Times New Roman_MSFontService,Arial" font-weight="700" font-size="28" transform="translate(492.552 381)">T</text><text fill="#2F528F" font-family="Times New Roman,Times New Roman_MSFontService,Arial" font-weight="400" font-size="28" transform="translate(518.302 381)">separate runs</text><text font-family="Times New Roman,Times New Roman_MSFontService,Arial" font-weight="700" font-size="24" transform="translate(-122.439 161)">P      </text><text font-family="Times New Roman,Times New Roman_MSFontService,Arial" font-weight="700" font-size="24" transform="translate(-67.0092 161)">U</text><path d="M-105 152C-105 147.582-101.642 144-97.5 144-93.3579 144-90 147.582-90 152-90 156.418-93.3579 160-97.5 160-101.642 160-105 156.418-105 152Z" fill="#00A375" fill-rule="evenodd"/><path d="M-47 152C-47 147.582-43.866 144-40 144-36.134 144-33 147.582-33 152-33 156.418-36.134 160-40 160-43.866 160-47 156.418-47 152Z" fill="#7F7F7F" fill-rule="evenodd"/><text fill="#2F528F" font-family="Times New Roman,Times New Roman_MSFontService,Arial" font-weight="400" font-size="28" transform="translate(469.781 429)">In this work </text><text fill="#2F528F" font-family="Times New Roman,Times New Roman_MSFontService,Arial" font-weight="700" font-size="28" transform="translate(612.031 429)">T</text><text fill="#2F528F" font-family="Times New Roman,Times New Roman_MSFontService,Arial" font-weight="400" font-size="28" transform="translate(637.781 429)">= 60</text><text font-family="Times New Roman,Times New Roman_MSFontService,Arial" font-weight="400" font-size="24" transform="translate(-235.759 247)">Start</text><text font-family="Times New Roman,Times New Roman_MSFontService,Arial" font-weight="400" font-size="24" transform="translate(-236.073 517)">End</text></g></svg>